G04 ================== begin FILE IDENTIFICATION RECORD ==================*
G04 Layout Name:  FIBER-E1-PWR_01v2.brd*
G04 Film Name:    BOARD*
G04 File Format:  Gerber RS274X*
G04 File Origin:  Cadence Allegro 16.6-2015-S073*
G04 Origin Date:  Wed Jun 20 09:42:18 2018*
G04 *
G04 Layer:  BOARD GEOMETRY/NCROUTE_PATH*
G04 Layer:  BOARD GEOMETRY/OUTLINE*
G04 *
G04 Offset:    (0.000 0.000)*
G04 Mirror:    No*
G04 Mode:      Positive*
G04 Rotation:  0*
G04 FullContactRelief:  No*
G04 UndefLineWidth:     0.250*
G04 ================== end FILE IDENTIFICATION RECORD ====================*
%FSLAX34Y34*MOMM*%
%IR0*IPPOS*OFA0.00000B0.00000*MIA0B0*SFA1.00000B1.00000*%
%ADD10C,.1*%
%ADD11C,.25*%
G75*
%LPD*%
G75*
G54D10*
G01X90000Y420000D02*
G02Y440000I0J10000D01*
G01D02*
X115000D01*
G01X125000Y420000D02*
X90000D01*
G01X115000Y595000D02*
X90000D01*
G01D02*
G02Y615000I0J10000D01*
G01D02*
X125000D01*
G01X115000Y440000D02*
Y595000D01*
G01X135000Y605000D02*
Y430000D01*
G01D02*
G02X125000Y420000I-10000J0D01*
G01Y615000D02*
G02X135000Y605000I0J-10000D01*
G01X332500Y595000D02*
Y440000D01*
G01D02*
X357500D01*
G01D02*
G02Y420000I0J-10000D01*
G01D02*
X322500D01*
G01D02*
G02X312500Y430000I0J10000D01*
G01D02*
Y605000D01*
G01X357500Y615000D02*
G02Y595000I0J-10000D01*
G01D02*
X332500D01*
G01X312500Y605000D02*
G02X322500Y615000I10000J0D01*
G01D02*
X357500D01*
G01X445000Y420000D02*
G02Y440000I0J10000D01*
G01D02*
X470000D01*
G01X480000Y420000D02*
X445000D01*
G01X470000Y595000D02*
X445000D01*
G01D02*
G02Y615000I0J10000D01*
G01D02*
X480000D01*
G01X470000Y440000D02*
Y595000D01*
G01X490000Y605000D02*
Y430000D01*
G01D02*
G02X480000Y420000I-10000J0D01*
G01Y615000D02*
G02X490000Y605000I0J-10000D01*
G01X603680Y742950D02*
G02Y762950I0J10000D01*
G01X677500Y420000D02*
G02X667500Y430000I0J10000D01*
G01D02*
Y605000D01*
G01D02*
G02X677500Y615000I10000J0D01*
G01X759540Y742950D02*
X603680D01*
G01Y762950D02*
X763680D01*
G01X687500Y595000D02*
Y440000D01*
G01D02*
X712500D01*
G01D02*
G02Y420000I0J-10000D01*
G01D02*
X677500D01*
G01X712500Y615000D02*
G02Y595000I0J-10000D01*
G01D02*
X687500D01*
G01X677500Y615000D02*
X712500D01*
G01X762650Y574100D02*
X787400Y549350D01*
G01D02*
G03X801550I7075J7073D01*
G01D02*
G03Y563500I-7073J7075D01*
G01D02*
X776800Y588250D01*
G01D02*
G03X762650I-7075J-7073D01*
G01D02*
G03Y574100I7073J-7075D01*
G01X905110Y597380D02*
X759540Y742950D01*
G01X770870Y759900D02*
X919250Y611520D01*
G01X763680Y762950D02*
G02X770870Y759900I0J-10000D01*
G01X919250Y597380D02*
G02X905110I-7070J7073D01*
G01X919250Y611520D02*
G02Y597380I-7073J-7070D01*
G01X1259760Y393700D02*
X1163900D01*
G01D02*
G02Y413700I0J10000D01*
G01D02*
X1263900D01*
G01X1162500Y622500D02*
G02Y642500I0J10000D01*
G01D02*
X1338360D01*
G01X1342500Y622500D02*
X1162500D01*
G01X1331680Y321780D02*
X1259760Y393700D01*
G01X1271090Y410650D02*
X1348630Y333110D01*
G01X1263900Y413700D02*
G02X1271090Y410650I0J-10000D01*
G01X1351680Y305920D02*
G02X1331680I-10000J0D01*
G01D02*
Y321780D01*
G01X1348630Y333110D02*
G02X1351680Y325920I-6950J-7190D01*
G01D02*
Y305920D01*
G01X1338360Y642500D02*
X1349450Y653590D01*
G01D02*
G02X1356640Y656640I7190J-6950D01*
G01D02*
X1396640D01*
G01Y636640D02*
X1360780D01*
G01D02*
X1349690Y625550D01*
G01D02*
G02X1342500Y622500I-7190J6950D01*
G01X1396640Y656640D02*
G02Y636640I0J-10000D01*
G54D11*
G01X0Y0D02*
Y1000000D01*
X1800000D01*
Y0D01*
X0D01*
G01X428790Y97070D02*
G02Y111210I7069J7070D01*
G01D02*
G02X442930I7070J-7069D01*
G01D02*
X471210Y82930D01*
G01X457070Y68790D02*
X428790Y97070D01*
G01X471210Y82930D02*
G02Y68790I-7069J-7070D01*
G01D02*
G02X457070I-7070J7069D01*
M02*
