G04 ================== begin FILE IDENTIFICATION RECORD ==================*
G04 Layout Name:  D:/Project/Circuit/FIBER-E1-PWR/01v1/pcb/FIBER-E1-PWR_01v1.brd*
G04 Film Name:    BOTTOM*
G04 File Format:  Gerber RS274X*
G04 File Origin:  Cadence Allegro 16.6-2015-S073*
G04 Origin Date:  Wed Oct 12 13:57:09 2016*
G04 *
G04 Layer:  ETCH/BOTTOM*
G04 Layer:  PIN/BOTTOM*
G04 Layer:  VIA CLASS/BOTTOM*
G04 *
G04 Offset:    (0.000 0.000)*
G04 Mirror:    No*
G04 Mode:      Positive*
G04 Rotation:  0*
G04 FullContactRelief:  No*
G04 UndefLineWidth:     0.250*
G04 ================== end FILE IDENTIFICATION RECORD ====================*
%FSLAX34Y34*MOMM*%
%IR0*IPPOS*OFA0.00000B0.00000*MIA0B0*SFA1.00000B1.00000*%
%ADD21C,2.1*%
%ADD15C,3.*%
%ADD14C,2.4*%
%ADD13C,6.*%
%ADD10C,1.5*%
%ADD20C,3.4*%
%ADD16C,1.7*%
%ADD23C,2.7*%
%ADD11C,7.2*%
%ADD25R,3.X3.*%
%ADD22R,2.1X2.1*%
%ADD17C,1.9*%
%ADD27R,1.5X1.5*%
%ADD26R,1.7X1.7*%
%ADD24R,2.7X2.7*%
%ADD18R,1.9X1.9*%
%ADD19R,1.9X1.9*%
%ADD12C,.8*%
G75*
%LPD*%
G75*
G36*
G01X89000Y467200D02*
X52800D01*
G02X32800Y487200I0J20000D01*
G01Y548800D01*
G02X52800Y568800I20000J0D01*
G01X89000D01*
G02X109000Y548800I0J-20000D01*
G01Y487200D01*
G02X89000Y467200I-20000J0D01*
G37*
G36*
G01X357600D02*
G02X337830Y484170I0J20001D01*
G02X337820Y484320I990J141D01*
G01Y517520D01*
X337600D01*
Y548800D01*
G02X357600Y568800I20000J0D01*
G01X444600D01*
G02X464600Y548800I0J-20000D01*
G01Y487200D01*
G02X444600Y467200I-20000J0D01*
G01X357600D01*
G37*
G36*
G01X713200D02*
G02X693430Y484170I0J20001D01*
G02X693420Y484320I990J141D01*
G01Y517520D01*
X693200D01*
Y548800D01*
G02X713200Y568800I20000J0D01*
G01X749400D01*
G02X769400Y548800I0J-20000D01*
G01Y487200D01*
G02X749400Y467200I-20000J0D01*
G01X713200D01*
G37*
G54D10*
X96300Y379100D03*
Y479100D03*
Y556900D03*
Y656900D03*
X159800Y175500D03*
Y225500D03*
X286800Y175500D03*
Y225500D03*
X350300Y379100D03*
Y479100D03*
Y556900D03*
Y656900D03*
X451900Y379100D03*
Y479100D03*
Y556900D03*
Y656900D03*
X515400Y175500D03*
Y225500D03*
X642400Y175500D03*
Y225500D03*
X705900Y379100D03*
Y479100D03*
Y556900D03*
Y656900D03*
X1455200Y124400D03*
X1404400Y327400D03*
X1506000D03*
X1467900Y645000D03*
Y670400D03*
Y695800D03*
Y721200D03*
Y873600D03*
Y899000D03*
X1607600Y327400D03*
X1620300Y670400D03*
Y645000D03*
Y721200D03*
Y695800D03*
Y899000D03*
Y873600D03*
Y924400D03*
G54D11*
X69000Y518000D03*
X401100D03*
X731300D03*
G54D20*
X479800Y27000D03*
X678000D03*
G54D12*
X49200Y498200D03*
X69000Y546000D03*
X49200Y537800D03*
X88800Y498200D03*
X97000Y518000D03*
X88800Y537800D03*
X69000Y490000D03*
X41000Y518000D03*
X381300Y498200D03*
Y537800D03*
X373100Y518000D03*
X401100Y546000D03*
X420900Y498200D03*
X429100Y518000D03*
X420900Y537800D03*
X401100Y490000D03*
X711500Y498200D03*
X731300Y546000D03*
X711500Y537800D03*
X731300Y490000D03*
X703300Y518000D03*
X751100Y498200D03*
X759300Y518000D03*
X751100Y537800D03*
G54D21*
X540800Y52000D03*
G54D22*
X617000D03*
G54D13*
X60000Y940000D03*
X400000Y60000D03*
X1740000Y180000D03*
Y940000D03*
G54D23*
X959900Y747400D03*
X1277400D03*
G54D14*
X159250Y23000D03*
X287350D03*
G54D24*
X959900Y847400D03*
X1277400D03*
G54D15*
X134400Y111600D03*
X185200D03*
X490000D03*
X540800D03*
X667800D03*
X617000D03*
X1169200Y270000D03*
G54D25*
Y170000D03*
G54D16*
X148300Y378300D03*
Y657700D03*
X185800Y307100D03*
X185000Y727500D03*
X222500D03*
X260800Y297100D03*
X298300Y378300D03*
Y657700D03*
X310000Y775000D03*
Y910000D03*
X272500D03*
X347500Y775000D03*
X410000Y902500D03*
X503900Y378300D03*
Y657700D03*
X485000Y902500D03*
X560000Y830000D03*
X575000Y900000D03*
X653900Y378300D03*
Y657700D03*
X612500Y900000D03*
X660000D03*
X710000Y830000D03*
X697500Y900000D03*
X810000Y237500D03*
Y312500D03*
X760000Y685000D03*
Y647500D03*
Y822500D03*
Y785000D03*
X880000Y322500D03*
X830000Y400000D03*
X880000Y360000D03*
X830000Y437500D03*
X932500Y85000D03*
Y135000D03*
X950000Y202500D03*
X960000Y400000D03*
X950000Y352500D03*
X960000Y437500D03*
X1201200Y467200D03*
Y543400D03*
X1226600D03*
X1201200Y518000D03*
X1226600D03*
X1201200Y492600D03*
X1226600D03*
X1201200Y568800D03*
X1226600D03*
G54D26*
Y467200D03*
G54D17*
X158300Y468000D03*
Y568000D03*
X204250Y32000D03*
X288300Y568000D03*
X528900Y314100D03*
X513900Y468000D03*
Y568000D03*
X628900Y290100D03*
X643900Y568000D03*
X1404400Y530700D03*
X1506000D03*
X1607600Y73500D03*
Y530700D03*
G54D18*
X242350Y32000D03*
X1404400Y73500D03*
G54D27*
Y124400D03*
X1467900Y924400D03*
G54D19*
X288300Y468000D03*
X643900D03*
M02*
