M48
METRIC,TZ
T01C.3
T02C.8
T03C1.
T04C1.2
T05C1.4
T06C2.
T07C2.4
T08C3.2
T09C2.4
;LEADER: 12 
;HEADER: 
;CODE  : ASCII 
;FILE  : FIBER-E1-PWR_01v2-1-2.drl for  ... layers TOP and BOTTOM
;DESIGN: FIBER-E1-PWR_01v2.brd
;T01 Holesize 1. = 0.300000 Tolerance = +0.000000/-0.000000 PLATED MM Quantity = 24
;T02 Holesize 2. = 0.800000 Tolerance = +0.000000/-0.000000 PLATED MM Quantity = 43
;T03 Holesize 3. = 1.000000 Tolerance = +0.000000/-0.000000 PLATED MM Quantity = 56
;T04 Holesize 4. = 1.200000 Tolerance = +0.000000/-0.000000 PLATED MM Quantity = 25
;T05 Holesize 5. = 1.400000 Tolerance = +0.000000/-0.000000 PLATED MM Quantity = 2
;T06 Holesize 6. = 2.000000 Tolerance = +0.000000/-0.000000 PLATED MM Quantity = 6
;T07 Holesize 7. = 2.400000 Tolerance = +0.000000/-0.000000 PLATED MM Quantity = 2
;T08 Holesize 8. = 3.200000 Tolerance = +0.000000/-0.000000 PLATED MM Quantity = 7
;T09 Holesize 9. = 2.400000 Tolerance = +0.000000/-0.000000 NON_PLATED MM Quantity = 2
%
G90
T01
X41000Y518000
X69000Y490000
X88800Y537800
X97000Y518000
X88800Y498200
X49200Y537800
X69000Y546000
X49200Y498200
X373100Y518000
X401100Y490000
X420900Y537800
X429100Y518000
X420900Y498200
X381300Y537800
X401100Y546000
X381300Y498200
X703300Y518000
X731300Y490000
X751100Y537800
X759300Y518000
X751100Y498200
X711500Y537800
X731300Y546000
X711500Y498200
T02
X85000Y365000
Y465000
Y672500
Y572500
X360000Y465000
Y365000
Y572500
Y672500
X715000Y365000
Y465000
X442500
Y365000
X715000Y672500
Y572500
X442500
Y672500
X1404400Y124400
X1455200
X1607600Y327400
R02X-101600
X1467900Y924400
R02Y-25400
Y721200
R03Y-25400
X1620300
R03Y25400
Y873600
R02Y25400
X618900Y553000
X538900
Y483000
X618900
X263300Y553000
X183300
Y483000
X263300
T03
X503900Y378300
X653900
X298300
X148300
X298300Y657700
X148300
X560000Y830000
X710000
X503900Y657700
X653900
X950000Y352500
Y202500
X617000Y111600
X667800
X540800
X490000
X185200
X134400
X932500Y135000
Y85000
X347500Y775000
X310000
X697500Y900000
X660000
X805980Y590980
X832500Y617500
X880000Y360000
Y322500
X612500Y900000
X575000
X242500Y730000
X205000
X760000Y785000
Y822500
X830000Y437500
Y400000
X960000Y437500
Y400000
X272500Y910000
X310000
X185800Y307100
X260800Y297100
X810000Y237500
Y312500
X485000Y902500
X410000
X1226600Y467200
X1201200
X1226600Y492600
X1201200
X1226600Y518000
X1201200
X1226600Y543400
X1201200
X1226600Y568800
X1201200
T04
X1404400Y73500
X1607600
X1404400Y530700
R02X101600
X643900Y468000
Y568000
X513900
Y468000
X288300
Y568000
X158300
Y468000
X642400Y175500
Y225500
X515400Y175500
Y225500
X159800Y175500
Y225500
X286800Y175500
Y225500
X628900Y290100
X528900Y314100
X204250Y32000
X242350
T05
X617000Y52000
X540800
T06
X1277400Y847400
Y747400
X1169200Y170000
Y270000
X959900Y847400
Y747400
T07
X479800Y27000
X678000
T08
X60000Y940000
X400000Y60000
X69000Y518000
X401100
X731300
X1740000Y180000
Y940000
T09
X159250Y23000
X287350
M30
