G04 ================== begin FILE IDENTIFICATION RECORD ==================*
G04 Layout Name:  FIBER-E1-PWR_01v2.brd*
G04 Film Name:    TOP*
G04 File Format:  Gerber RS274X*
G04 File Origin:  Cadence Allegro 16.6-2015-S073*
G04 Origin Date:  Wed Jun 20 09:42:18 2018*
G04 *
G04 Layer:  ETCH/TOP*
G04 Layer:  PIN/TOP*
G04 Layer:  VIA CLASS/TOP*
G04 *
G04 Offset:    (0.000 0.000)*
G04 Mirror:    No*
G04 Mode:      Positive*
G04 Rotation:  0*
G04 FullContactRelief:  No*
G04 UndefLineWidth:     0.250*
G04 ================== end FILE IDENTIFICATION RECORD ====================*
%FSLAX34Y34*MOMM*%
%IR0*IPPOS*OFA0.00000B0.00000*MIA0B0*SFA1.00000B1.00000*%
%ADD10C,1.*%
%ADD31C,3.*%
%ADD23C,2.1*%
%ADD14C,5.*%
%ADD15C,2.4*%
%ADD11C,1.5*%
%ADD22C,3.4*%
%ADD17C,1.7*%
%ADD28C,2.7*%
%ADD12C,7.2*%
%ADD30R,3.X3.*%
%ADD24R,2.1X2.1*%
%ADD16C,1.9*%
%ADD35R,1.5X1.5*%
%ADD32R,1.7X1.7*%
%ADD29R,2.7X2.7*%
%ADD18R,1.9X1.9*%
%ADD27R,1.X2.*%
%ADD34R,1.8X1.4*%
%ADD33R,2.3X1.8*%
%ADD19R,3.2X2.26*%
%ADD25R,2.26X3.2*%
%ADD21R,2.26X2.16*%
%ADD26R,2.16X2.26*%
%ADD20R,1.9X1.9*%
%ADD13C,.8*%
%ADD36C,2.*%
%ADD37C,1.4*%
%ADD38C,.9*%
G75*
%LPD*%
G75*
G54D10*
G01X830000Y437500D02*
G02X858300Y440000I28300J-158928D01*
G01X882300D01*
G01X960000Y437500D02*
G03X934500Y440000I-25500J-128800D01*
G01X907700D01*
G01X1226600Y492600D02*
Y467200D01*
G01X1201200Y492600D02*
Y467200D01*
G01X1226600Y518000D02*
Y492600D01*
G01Y518000D02*
Y543400D01*
G01D02*
Y568800D01*
G01X1201200D02*
Y543400D01*
X45000Y45000D03*
Y900000D03*
X1695000Y955000D03*
X1755000Y45000D03*
G54D20*
X288300Y468000D03*
X643900D03*
G54D11*
G01X1226600Y518000D02*
X1283750D01*
G01X1353600Y441800D02*
X1315500D01*
G01Y487840D02*
Y507140D01*
G02X1320000Y518000I15360J-2D01*
G01D02*
G02X1315500Y528860I10860J10862D01*
G01Y548160D01*
G01X1283750Y518000D02*
X1320000D01*
G01X1620300Y670400D02*
X1600160D01*
G03X1569500Y657700I0J-43360D01*
G01X1538520Y626720D01*
G02X1490670Y606900I-47850J47850D01*
G01X1368930D01*
G03X1353600Y600550I0J-21680D01*
G02X1338270Y594200I-15330J15330D01*
G01X1315500D01*
G01X1277400D02*
X1315500D01*
G01X1404400Y327400D02*
Y391000D01*
G03X1353600Y441800I-50800J0D01*
G01X1404400Y530700D02*
Y492600D01*
G02X1353600Y441800I-50800J0D01*
G01X1320000Y518000D02*
G03X1344840Y528290I0J35127D01*
G01X1372650Y556100D01*
G02X1403310Y568800I30660J-30660D01*
G01X1482900D01*
G01X1506000Y327400D02*
Y530700D01*
G01D02*
Y545700D01*
G03X1482900Y568800I-23100J0D01*
G01X1620300Y721200D02*
X1635300D01*
G02X1658400Y698100I0J-23100D01*
G01Y637560D01*
G02X1645700Y606900I-43360J0D01*
G01X1625560Y586760D01*
G02X1582200Y568800I-43360J43360D01*
G01X1482900D01*
X85000Y365000D03*
Y465000D03*
Y572500D03*
Y672500D03*
X134400Y111600D03*
X185200D03*
X183300Y483000D03*
Y553000D03*
X263300Y483000D03*
Y553000D03*
X360000Y365000D03*
Y465000D03*
Y572500D03*
Y672500D03*
X442500Y365000D03*
Y465000D03*
Y572500D03*
Y672500D03*
X490000Y111600D03*
X540800D03*
X538900Y483000D03*
Y553000D03*
X667800Y111600D03*
X617000D03*
X618900Y483000D03*
Y553000D03*
X715000Y365000D03*
Y465000D03*
Y572500D03*
Y672500D03*
X1455200Y124400D03*
X1404400Y327400D03*
X1506000D03*
X1467900Y645000D03*
Y670400D03*
Y695800D03*
Y721200D03*
Y873600D03*
Y899000D03*
X1607600Y327400D03*
X1620300Y670400D03*
Y645000D03*
Y721200D03*
Y695800D03*
Y899000D03*
Y873600D03*
Y924400D03*
G54D21*
X310000Y818000D03*
Y867000D03*
G54D30*
X1169200Y170000D03*
G54D12*
X69000Y518000D03*
X401100D03*
X731300D03*
G54D13*
X49200Y498200D03*
X69000Y546000D03*
X49200Y537800D03*
X88800Y498200D03*
X97000Y518000D03*
X88800Y537800D03*
X69000Y490000D03*
X41000Y518000D03*
X381300Y498200D03*
Y537800D03*
X373100Y518000D03*
X401100Y546000D03*
X420900Y498200D03*
X429100Y518000D03*
X420900Y537800D03*
X401100Y490000D03*
X711500Y498200D03*
X731300Y546000D03*
X711500Y537800D03*
X731300Y490000D03*
X703300Y518000D03*
X751100Y498200D03*
X759300Y518000D03*
X751100Y537800D03*
G54D22*
X479800Y27000D03*
X678000D03*
G54D31*
X1169200Y270000D03*
G54D32*
X1226600Y467200D03*
G54D14*
X60000Y940000D03*
X400000Y60000D03*
X1740000Y180000D03*
Y940000D03*
G54D23*
X540800Y52000D03*
G54D33*
X1315500Y441800D03*
Y487840D03*
Y548160D03*
Y594200D03*
G54D24*
X617000Y52000D03*
G54D15*
X159250Y23000D03*
X287350D03*
G54D25*
X795500Y145000D03*
X864500D03*
G54D34*
X1277400Y469500D03*
Y441800D03*
Y566500D03*
Y594200D03*
G54D16*
G01X185200Y111600D02*
Y77990D01*
G03X204250Y32000I65040J0D01*
G01X286800Y175500D02*
Y139310D01*
G02X242350Y32000I-151760J1D01*
X159800Y175500D03*
Y225500D03*
X158300Y468000D03*
Y568000D03*
X242350Y32000D03*
X286800Y175500D03*
Y225500D03*
X288300Y568000D03*
X515400Y175500D03*
Y225500D03*
X528900Y314100D03*
X513900Y468000D03*
Y568000D03*
X642400Y175500D03*
Y225500D03*
X628900Y290100D03*
X643900Y568000D03*
X1404400Y530700D03*
X1506000D03*
X1607600Y73500D03*
Y530700D03*
G54D26*
X870500Y400000D03*
X919500D03*
G54D35*
X1404400Y124400D03*
X1467900Y924400D03*
G54D17*
G01X148300Y657700D02*
X120730D01*
G02X85000Y672500I0J50530D01*
G01X183300Y553000D02*
G02X166230Y560070I0J24142D01*
G01X158300Y568000D01*
G01D02*
Y633560D01*
G03X148300Y657700I-34140J-1D01*
G01D02*
X157700D01*
G03X205000Y705000I0J47300D01*
G01Y730000D01*
G01X298300Y657700D02*
X294800D01*
G02X242500Y710000I0J52300D01*
G01Y730000D01*
G01X210600Y895400D02*
X237250D01*
G03X272500Y910000I1J49850D01*
G01X263300Y553000D02*
G03X280370Y560070I0J24142D01*
G01X288300Y568000D01*
G01D02*
Y633560D01*
G02X298300Y657700I34140J-1D01*
G01X310000Y818000D02*
X531030D01*
G03X560000Y830000I0J40970D01*
G01X310000Y775000D02*
Y818000D01*
G01X410000Y902500D02*
X406820D01*
G03X352500Y880000I0J-76820D01*
G02X321120Y867000I-31383J31380D01*
G01X310000D01*
G01Y910000D02*
Y867000D01*
G01X360000Y672500D02*
Y744820D01*
G03X347500Y775000I-42680J1D01*
G01X832500Y617500D02*
G03X821900Y643100I-36210J1D01*
G01X765930Y699070D01*
G03X712500Y721200I-53430J-53435D01*
G01X491200D01*
G03X442500Y672500I0J-48700D01*
G01X503900Y657700D02*
X478230D01*
G02X442500Y672500I0J50530D01*
G01X538900Y553000D02*
G02X521830Y560070I0J24142D01*
G01X513900Y568000D01*
G01D02*
Y633560D01*
G03X503900Y657700I-34140J-1D01*
G01X760000Y939500D02*
G03X730260Y951820I-29742J-29740D01*
G01X514320D01*
G03X485000Y922500I0J-29320D01*
G01Y902500D01*
G01X575000Y900000D02*
G03X552500Y902500I-22500J-100000D01*
G01X485000D01*
G01X560000Y830000D02*
X582140D01*
G02X642500Y805000I3J-85360D01*
G03X690780Y785000I48282J48280D01*
G01X760000D01*
G01X618900Y553000D02*
G03X635970Y560070I0J24142D01*
G01X643900Y568000D01*
G01D02*
Y633560D01*
G02X653900Y657700I34140J-1D01*
G01X715000Y672500D02*
X689630D01*
G03X653900Y657700I0J-50530D01*
G01X612500Y900000D02*
X660000D01*
G01X805980Y590980D02*
X731150Y665810D01*
G03X715000Y672500I-16151J-16150D01*
G01X730500Y870500D02*
G03X710000Y850000I0J-20500D01*
G01Y830000D01*
G01X760000Y870500D02*
X730500D01*
G01D02*
X727000D01*
G02X697500Y900000I0J29500D01*
G01X795500Y145000D02*
Y128750D01*
G03X839250Y85000I43750J0D01*
G01X932500D01*
G01X795500Y145000D02*
Y202490D01*
G02X810000Y237500I49510J2D01*
G01X830000Y400000D02*
Y360780D01*
G02X810000Y312500I-68280J2D01*
G01X867230Y529730D02*
X805980Y590980D01*
G01X760000Y785000D02*
G02X789190Y772910I0J-41283D01*
G03X850780Y747400I61588J61590D01*
G01X959900D01*
G01X811100Y847400D02*
G02X786200Y822500I-24900J0D01*
G01X760000D01*
G01Y870500D02*
X788000D01*
G02X811100Y847400I0J-23100D01*
G01D02*
X959900D01*
G01X1620300Y899000D02*
X1605630D01*
G02X1568450Y914400I-1J52580D01*
G01X1566390Y916460D01*
G03X1485900Y949800I-80490J-80490D01*
G01X1385670D01*
G03X1346200Y933450I1J-55820D01*
G02X1324590Y924500I-21608J21610D01*
G01X796210D01*
G02X760000Y939500I2J51210D01*
G01X880000Y322500D02*
G03X915360Y237150I120707J8D01*
G01X950000Y202500D01*
G01X919500Y400000D02*
Y383100D01*
G02X896400Y360000I-23100J0D01*
G01X880000D01*
G01X870500Y400000D02*
X830000D01*
G01X832500Y617500D02*
G02X858110Y606900I10J-36212D01*
G01X890170Y574830D01*
G02X907700Y532500I-42340J-42329D01*
G01X1347250Y85000D02*
X932500D01*
G01Y135000D02*
X956900Y159390D01*
G02X982500Y170000I25607J-25597D01*
G01D02*
X950000Y202500D01*
G01X960000Y400000D02*
Y376640D01*
G02X950000Y352500I-34140J1D01*
G01X960000Y400000D02*
X919500D01*
G01X950000Y352500D02*
X998530Y303980D01*
G03X1080550Y270000I82027J82017D01*
G01X1169200D01*
G01X959900Y747400D02*
X1277400D01*
G01X959900Y847400D02*
X1277400D01*
G01X982500Y170000D02*
X1169200D01*
G01Y270000D02*
X1182540D01*
G02X1258350Y238600I2J-107210D01*
G01X1286700Y210250D01*
G03X1340900Y187800I54199J54200D01*
G01X1411800D01*
G02X1455200Y144400I0J-43400D01*
G01Y124400D01*
G01X1467900Y873600D02*
G03X1418140Y852990I-2J-70370D01*
G01X1333500Y768350D01*
G02X1282920Y747400I-50579J50580D01*
G01X1277400D01*
G01X1404400Y124400D02*
X1377550Y97550D01*
G02X1347250Y85000I-30300J30302D01*
G01X1404400Y73500D02*
G03X1376640Y85000I-27762J-27760D01*
G01X1347250D01*
G01X1455200Y124400D02*
Y105250D01*
G03X1486950Y73500I31750J0D01*
G01X1607600D01*
G01X1467900Y899000D02*
Y873600D01*
G01X1620300D02*
Y899000D01*
X148300Y378300D03*
Y657700D03*
X185800Y307100D03*
X205000Y730000D03*
X242500D03*
X260800Y297100D03*
X298300Y378300D03*
Y657700D03*
X310000Y775000D03*
Y910000D03*
X272500D03*
X347500Y775000D03*
X410000Y902500D03*
X503900Y378300D03*
Y657700D03*
X485000Y902500D03*
X560000Y830000D03*
X575000Y900000D03*
X653900Y378300D03*
Y657700D03*
X612500Y900000D03*
X660000D03*
X710000Y830000D03*
X697500Y900000D03*
X810000Y237500D03*
Y312500D03*
X805980Y590980D03*
X760000Y822500D03*
Y785000D03*
X880000Y322500D03*
X830000Y400000D03*
X880000Y360000D03*
X830000Y437500D03*
X832500Y617500D03*
X932500Y85000D03*
Y135000D03*
X950000Y202500D03*
X960000Y400000D03*
X950000Y352500D03*
X960000Y437500D03*
X1201200Y467200D03*
Y543400D03*
X1226600D03*
X1201200Y518000D03*
X1226600D03*
X1201200Y492600D03*
X1226600D03*
X1201200Y568800D03*
X1226600D03*
G54D36*
G01X185800Y307100D02*
X142900D01*
G02X85000Y365000I0J57900D01*
G01X148300Y378300D02*
X117110D01*
G03X85000Y365000I-1J-45410D01*
G01X134400Y111600D02*
Y114180D01*
G02X159800Y175500I86720J-1D01*
G01X185800Y307100D02*
Y288270D01*
G02X159800Y225500I-88770J0D01*
G01X158300Y468000D02*
Y402440D01*
G02X148300Y378300I-34140J1D01*
G01X183300Y483000D02*
G03X166230Y475930I0J-24142D01*
G01X158300Y468000D01*
G01X260800Y297100D02*
Y288270D01*
G03X286800Y225500I88770J0D01*
G01X260800Y297100D02*
X292100D01*
G03X360000Y365000I0J67900D01*
G01X298300Y378300D02*
X327890D01*
G02X360000Y365000I1J-45410D01*
G01X288300Y468000D02*
Y402440D01*
G03X298300Y378300I34140J1D01*
G01X263300Y483000D02*
G02X280370Y475930I0J-24142D01*
G01X288300Y468000D01*
G01X298300Y657700D02*
X324270D01*
G03X360000Y672500I0J50530D01*
G01X528900Y314100D02*
X490000D01*
G02X442500Y361600I0J47500D01*
G01Y365000D01*
G01X503900Y378300D02*
X474610D01*
G03X442500Y365000I-1J-45410D01*
G01X490000Y111600D02*
Y114180D01*
G02X515400Y175500I86720J-1D01*
G01X528900Y314100D02*
Y258090D01*
G02X515400Y225500I-46090J1D01*
G01X513900Y468000D02*
Y402440D01*
G02X503900Y378300I-34140J1D01*
G01X538900Y483000D02*
G03X521830Y475930I0J-24142D01*
G01X513900Y468000D01*
G01X540800Y52000D02*
Y111600D01*
G01X617000Y52000D02*
Y111600D01*
G01X667800D02*
Y114180D01*
G03X642400Y175500I-86720J-1D01*
G01X628900Y290100D02*
Y258090D01*
G03X642400Y225500I46090J1D01*
G01X715000Y365000D02*
Y342600D01*
G02X662500Y290100I-52500J0D01*
G01X628900D01*
G01X653900Y378300D02*
X682890D01*
G02X715000Y365000I1J-45410D01*
G01X643900Y468000D02*
Y402440D01*
G03X653900Y378300I34140J1D01*
G01X618900Y483000D02*
G02X635970Y475930I0J-24142D01*
G01X643900Y468000D01*
G01X864500Y145000D02*
X908360D01*
G02X932500Y135000I-1J-34140D01*
G54D27*
X882300Y440000D03*
Y505000D03*
X907700Y440000D03*
Y505000D03*
G54D18*
X204250Y32000D03*
X1404400Y73500D03*
G54D37*
G01X210600Y826400D02*
Y801150D01*
G02X184150Y774700I-26450J0D01*
G01X158750D01*
G03X104550Y752250I-1J-76650D01*
G01X95250Y742950D01*
G03X85000Y718200I24750J-24748D01*
G01Y672500D01*
G01X1201200Y467200D02*
Y454500D01*
G03X1213900Y441800I12700J0D01*
G01X1277400D01*
G01X1201200Y568800D02*
Y575150D01*
G02X1220250Y594200I19050J0D01*
G01X1277400D01*
G01X1283750Y518000D02*
G03X1277400Y502670I15330J-15330D01*
G01Y469500D01*
G01Y441800D02*
X1315500D01*
G01X1283750Y518000D02*
G02X1277400Y533330I15330J15330D01*
G01Y566500D01*
G54D19*
X210600Y826400D03*
Y895400D03*
X760000Y870500D03*
Y939500D03*
G54D28*
X959900Y747400D03*
X1277400D03*
G54D38*
G01X882300Y505000D02*
G03X867230Y529730I-27826J0D01*
G01X907700Y532500D02*
Y505000D01*
G54D29*
X959900Y847400D03*
X1277400D03*
M02*
