G04 ================== begin FILE IDENTIFICATION RECORD ==================*
G04 Layout Name:  D:/Project/Circuit/FIBER-E1-PWR/01v1/pcb/FIBER-E1-PWR_01v1.brd*
G04 Film Name:    TOP*
G04 File Format:  Gerber RS274X*
G04 File Origin:  Cadence Allegro 16.6-2015-S073*
G04 Origin Date:  Wed Oct 12 13:57:09 2016*
G04 *
G04 Layer:  ETCH/TOP*
G04 Layer:  PIN/TOP*
G04 Layer:  VIA CLASS/TOP*
G04 *
G04 Offset:    (0.000 0.000)*
G04 Mirror:    No*
G04 Mode:      Positive*
G04 Rotation:  0*
G04 FullContactRelief:  No*
G04 UndefLineWidth:     0.250*
G04 ================== end FILE IDENTIFICATION RECORD ====================*
%FSLAX34Y34*MOMM*%
%IR0*IPPOS*OFA0.00000B0.00000*MIA0B0*SFA1.00000B1.00000*%
%ADD23C,2.1*%
%ADD15C,3.*%
%ADD14C,2.4*%
%ADD13C,6.*%
%ADD10C,1.5*%
%ADD22C,3.4*%
%ADD16C,1.7*%
%ADD28C,2.7*%
%ADD11C,7.2*%
%ADD30R,3.X3.*%
%ADD24R,2.1X2.1*%
%ADD17C,1.9*%
%ADD34R,1.5X1.5*%
%ADD31R,1.7X1.7*%
%ADD29R,2.7X2.7*%
%ADD18R,1.9X1.9*%
%ADD27R,.9X1.775*%
%ADD32R,2.3X1.52*%
%ADD33R,1.8X1.4*%
%ADD19R,3.2X2.26*%
%ADD25R,2.26X3.2*%
%ADD21R,2.26X2.16*%
%ADD26R,2.275X2.1*%
%ADD20R,1.9X1.9*%
%ADD12C,.8*%
%ADD35C,1.*%
%ADD36C,2.*%
%ADD37C,1.6*%
%ADD38C,.9*%
G75*
%LPD*%
G75*
G36*
G01X881900Y531720D02*
X879650Y540080D01*
G03X867420Y527850I-9650J-2580D01*
G01X875780Y525600D01*
G03X881900Y531720I1290J4830D01*
G37*
G54D10*
G01X1315500Y445580D02*
X1349820D01*
G01X1315500Y547180D02*
Y525130D01*
G03X1317360Y520640I6350J0D01*
G01X1320000Y518000D01*
G01X1315500Y488820D02*
Y510870D01*
G02X1317360Y515360I6350J0D01*
G01X1320000Y518000D01*
G01X1315500Y590420D02*
X1344560D01*
G03X1349050Y592280I0J6350D01*
X96300Y379100D03*
Y479100D03*
Y556900D03*
Y656900D03*
X159800Y175500D03*
Y225500D03*
X286800Y175500D03*
Y225500D03*
X350300Y379100D03*
Y479100D03*
Y556900D03*
Y656900D03*
X451900Y379100D03*
Y479100D03*
Y556900D03*
Y656900D03*
X515400Y175500D03*
Y225500D03*
X642400Y175500D03*
Y225500D03*
X705900Y379100D03*
Y479100D03*
Y556900D03*
Y656900D03*
X1455200Y124400D03*
X1404400Y327400D03*
X1506000D03*
X1467900Y645000D03*
Y670400D03*
Y695800D03*
Y721200D03*
Y873600D03*
Y899000D03*
X1607600Y327400D03*
X1620300Y670400D03*
Y645000D03*
Y721200D03*
Y695800D03*
Y899000D03*
Y873600D03*
Y924400D03*
G54D20*
X288300Y468000D03*
X643900D03*
G54D11*
X69000Y518000D03*
X401100D03*
X731300D03*
G54D12*
X49200Y498200D03*
X69000Y546000D03*
X49200Y537800D03*
X88800Y498200D03*
X97000Y518000D03*
X88800Y537800D03*
X69000Y490000D03*
X41000Y518000D03*
X381300Y498200D03*
Y537800D03*
X373100Y518000D03*
X401100Y546000D03*
X420900Y498200D03*
X429100Y518000D03*
X420900Y537800D03*
X401100Y490000D03*
X711500Y498200D03*
X731300Y546000D03*
X711500Y537800D03*
X731300Y490000D03*
X703300Y518000D03*
X751100Y498200D03*
X759300Y518000D03*
X751100Y537800D03*
G54D21*
X310000Y820450D03*
Y864550D03*
G54D30*
X1169200Y170000D03*
G54D31*
X1226600Y467200D03*
G54D22*
X479800Y27000D03*
X678000D03*
G54D13*
X60000Y940000D03*
X400000Y60000D03*
X1740000Y180000D03*
Y940000D03*
G54D32*
X1315500Y445580D03*
Y488820D03*
Y547180D03*
Y590420D03*
G54D14*
X159250Y23000D03*
X287350D03*
G54D23*
X540800Y52000D03*
G54D33*
X1277400Y468350D03*
Y440650D03*
Y567650D03*
Y595350D03*
G54D24*
X617000Y52000D03*
G54D15*
X134400Y111600D03*
X185200D03*
X490000D03*
X540800D03*
X667800D03*
X617000D03*
X1169200Y270000D03*
G54D25*
X795500Y145000D03*
X864500D03*
G54D34*
X1404400Y124400D03*
X1467900Y924400D03*
G54D16*
X148300Y378300D03*
Y657700D03*
X185800Y307100D03*
X185000Y727500D03*
X222500D03*
X260800Y297100D03*
X298300Y378300D03*
Y657700D03*
X310000Y775000D03*
Y910000D03*
X272500D03*
X347500Y775000D03*
X410000Y902500D03*
X503900Y378300D03*
Y657700D03*
X485000Y902500D03*
X560000Y830000D03*
X575000Y900000D03*
X653900Y378300D03*
Y657700D03*
X612500Y900000D03*
X660000D03*
X710000Y830000D03*
X697500Y900000D03*
X810000Y237500D03*
Y312500D03*
X760000Y685000D03*
Y647500D03*
Y822500D03*
Y785000D03*
X880000Y322500D03*
X830000Y400000D03*
X880000Y360000D03*
X830000Y437500D03*
X932500Y85000D03*
Y135000D03*
X950000Y202500D03*
X960000Y400000D03*
X950000Y352500D03*
X960000Y437500D03*
X1201200Y467200D03*
Y543400D03*
X1226600D03*
X1201200Y518000D03*
X1226600D03*
X1201200Y492600D03*
X1226600D03*
X1201200Y568800D03*
X1226600D03*
G54D35*
G01X907500Y503620D02*
Y529870D01*
G02X909360Y534360I6350J0D01*
G01X915000Y540000D01*
G01X882500Y503620D02*
Y522370D01*
G03X880640Y526860I-6350J0D01*
G01X870000Y537500D01*
G01X1201200Y467200D02*
Y453830D01*
G03X1203060Y449340I6350J0D01*
G01X1209890Y442510D01*
G03X1214380Y440650I4490J4490D01*
G01X1277400D01*
G01X1201200Y467200D02*
Y492600D01*
G01Y543400D02*
Y568800D01*
G01X1277400Y595350D02*
X1217680D01*
G03X1213190Y593490I0J-6350D01*
G01X1203060Y583360D01*
G03X1201200Y578870I4490J-4490D01*
G01Y568800D01*
G01X1315500Y445580D02*
X1297000D01*
X1296420Y445000D01*
X1295000D01*
X1291580Y441580D01*
G02X1289330Y440650I-2247J2250D01*
G01X1277400D01*
G01X1315500Y590420D02*
X1296510D01*
G02X1292020Y592280I0J6350D01*
G01X1289880Y594420D01*
G03X1287630Y595350I-2247J-2250D01*
G01X1277400D01*
G54D26*
X873120Y400000D03*
X916880D03*
G54D17*
X158300Y468000D03*
Y568000D03*
X204250Y32000D03*
X288300Y568000D03*
X528900Y314100D03*
X513900Y468000D03*
Y568000D03*
X628900Y290100D03*
X643900Y568000D03*
X1404400Y530700D03*
X1506000D03*
X1607600Y73500D03*
Y530700D03*
G54D36*
G01X148300Y378300D02*
X127300D01*
X126500Y379100D01*
X96300D01*
G01X185800Y307100D02*
X144730D01*
G02X140240Y308960I0J6350D01*
G01X98160Y351040D01*
G02X96300Y355530I4490J4490D01*
G01Y379100D01*
G01X148300Y657700D02*
X117100D01*
X116300Y656900D01*
X96300D01*
G01X210600Y826400D02*
X185230D01*
G03X180740Y824540I0J-6350D01*
G01X98160Y741960D01*
G03X96300Y737470I4490J-4490D01*
G01Y656900D01*
G01X159800Y175500D02*
X136260Y151960D01*
G03X134400Y147470I4490J-4490D01*
G01Y111600D01*
G01X185800Y307100D02*
Y254130D01*
G02X183940Y249640I-6350J0D01*
G01X159800Y225500D01*
G01X148300Y378300D02*
X156440Y386440D01*
G03X158300Y390930I-4490J4490D01*
G01Y468000D01*
G01Y568000D02*
Y624070D01*
G03X156440Y628560I-6350J0D01*
G01X149230Y635770D01*
G02X148300Y638020I2250J2247D01*
G01Y657700D01*
G01X185000Y727500D02*
Y697030D01*
G02X183140Y692540I-6350J0D01*
G01X148300Y657700D01*
G01X204250Y32000D02*
X187060Y49190D01*
G02X185200Y53680I4490J4490D01*
G01Y111600D01*
G01X286800Y175500D02*
X263260Y151960D01*
G03X261400Y147470I4490J-4490D01*
G01Y53680D01*
G02X259540Y49190I-6350J0D01*
G01X242350Y32000D01*
G01X298300Y657700D02*
X264930D01*
G02X260440Y659560I0J6350D01*
G01X250000Y670000D01*
Y697370D01*
G03X248140Y701860I-6350J0D01*
G01X222500Y727500D01*
G01X272500Y910000D02*
X259760Y897260D01*
G02X255270Y895400I-4490J4490D01*
G01X210600D01*
G01X260800Y297100D02*
Y254130D01*
G03X262660Y249640I6350J0D01*
G01X286800Y225500D01*
G01X350300Y379100D02*
Y355530D01*
G02X348440Y351040I-6350J0D01*
G01X296360Y298960D01*
G02X291870Y297100I-4490J4490D01*
G01X260800D01*
G01X350300Y379100D02*
X330300D01*
X329500Y378300D01*
X298300D01*
G01D02*
X290160Y386440D01*
G02X288300Y390930I4490J4490D01*
G01Y468000D01*
G01X298300Y657700D02*
Y639330D01*
G02X296440Y634840I-6350J0D01*
G01X289230Y627630D01*
G03X288300Y625380I2250J-2247D01*
G01Y568000D01*
G01X350300Y656900D02*
X330300D01*
X329500Y657700D01*
X298300D01*
G01X310000Y820450D02*
Y775000D01*
G01X560000Y830000D02*
X541630D01*
G03X537140Y828140I0J-6350D01*
G01X530380Y821380D01*
G02X528130Y820450I-2247J2250D01*
G01X310000D01*
G01Y864550D02*
Y910000D01*
G01X410000Y902500D02*
X373910Y866410D01*
G02X369420Y864550I-4490J4490D01*
G01X310000D01*
G01X347500Y775000D02*
Y681670D01*
G03X348890Y678310I4750J-2D01*
G02X350300Y674910I-3390J-3398D01*
G01Y656900D01*
G01X528900Y314100D02*
X480630D01*
G02X476140Y315960I0J6350D01*
G01X453760Y338340D01*
G02X451900Y342830I4490J4490D01*
G01Y379100D01*
G01X503900Y378300D02*
X482900D01*
X482100Y379100D01*
X451900D01*
G01X760000Y685000D02*
Y702370D01*
G03X758140Y706860I-6350J0D01*
G01X744730Y720270D01*
G03X742480Y721200I-2247J-2250D01*
G01X492630D01*
G03X488140Y719340I0J-6350D01*
G01X453760Y684960D01*
G03X451900Y680470I4490J-4490D01*
G01Y656900D01*
G01X503900Y657700D02*
X472700D01*
X471900Y656900D01*
X451900D01*
G01X515400Y175500D02*
X491860Y151960D01*
G03X490000Y147470I4490J-4490D01*
G01Y111600D01*
G01X528900Y314100D02*
Y261630D01*
G02X527040Y257140I-6350J0D01*
G01X516330Y246430D01*
G03X515400Y244180I2250J-2247D01*
G01Y225500D01*
G01X513900Y468000D02*
Y411930D01*
G02X512040Y407440I-6350J0D01*
G01X504830Y400230D01*
G03X503900Y397980I2250J-2247D01*
G01Y378300D01*
G01X513900Y568000D02*
Y624070D01*
G03X512040Y628560I-6350J0D01*
G01X504830Y635770D01*
G02X503900Y638020I2250J2247D01*
G01Y657700D01*
G01X760000Y939500D02*
X728130D01*
G02X723640Y941360I0J6350D01*
G01X713180Y951820D01*
X536950D01*
G03X532460Y949960I0J-6350D01*
G01X485000Y902500D01*
G01D02*
X549740D01*
G02X552740Y901260I4J-4240D01*
G03X555780Y900000I3037J3030D01*
G01X575000D01*
G01X540800Y52000D02*
Y111600D01*
G01X760000Y785000D02*
X667630D01*
G02X663140Y786860I0J6350D01*
G01X621860Y828140D01*
G03X617370Y830000I-4490J-4490D01*
G01X560000D01*
G01X617000Y52000D02*
Y111600D01*
G01X642400Y175500D02*
X665940Y151960D01*
G02X667800Y147470I-4490J-4490D01*
G01Y111600D01*
G01X628900Y290100D02*
Y261630D01*
G03X630760Y257140I6350J0D01*
G01X641470Y246430D01*
G02X642400Y244180I-2250J-2247D01*
G01Y225500D01*
G01X705900Y379100D02*
Y342830D01*
G02X704040Y338340I-6350J0D01*
G01X657660Y291960D01*
G02X653170Y290100I-4490J4490D01*
G01X628900D01*
G01X705900Y379100D02*
X685900D01*
X685100Y378300D01*
X653900D01*
G01X643900Y468000D02*
Y411930D01*
G03X645760Y407440I6350J0D01*
G01X652970Y400230D01*
G02X653900Y397980I-2250J-2247D01*
G01Y378300D01*
G01X643900Y568000D02*
Y624070D01*
G02X645760Y628560I6350J0D01*
G01X652970Y635770D01*
G03X653900Y638020I-2250J2247D01*
G01Y657700D01*
G01X705900Y656900D02*
X685900D01*
X685100Y657700D01*
X653900D01*
G01X612500Y900000D02*
X660000D01*
G01X705900Y656900D02*
X726970D01*
G02X731460Y655040I0J-6350D01*
G01X738070Y648430D01*
G03X740320Y647500I2247J2250D01*
G01X760000D01*
G01X710000Y830000D02*
Y850870D01*
G02X711860Y855360I6350J0D01*
G01X727000Y870500D01*
G01X760000D02*
X727000D01*
G01D02*
X697500Y900000D01*
G01X932500Y85000D02*
X822630D01*
G02X818140Y86860I0J6350D01*
G01X797360Y107640D01*
G02X795500Y112130I4490J4490D01*
G01Y145000D01*
G01X810000Y237500D02*
Y219130D01*
G02X808140Y214640I-6350J0D01*
G01X796430Y202930D01*
G03X795500Y200680I2250J-2247D01*
G01Y145000D01*
G01X830000Y400000D02*
Y335130D01*
G02X828140Y330640I-6350J0D01*
G01X810000Y312500D01*
G01X870000Y537500D02*
X760000Y647500D01*
G01X915000Y540000D02*
Y557370D01*
G03X913140Y561860I-6350J0D01*
G01X791860Y683140D01*
G03X787370Y685000I-4490J-4490D01*
G01X760000D01*
G01Y785000D02*
X767370D01*
G02X771860Y783140I0J-6350D01*
G01X805740Y749260D01*
G03X810230Y747400I4490J4490D01*
G01X959900D01*
G01Y847400D02*
X811100D01*
G01D02*
X789860Y868640D01*
G03X785370Y870500I-4490J-4490D01*
G01X760000D01*
G01X1620300Y899000D02*
X1559430D01*
G02X1554940Y900860I0J6350D01*
G01X1507860Y947940D01*
G03X1503370Y949800I-4490J-4490D01*
G01X1382430D01*
G03X1377940Y947940I0J-6350D01*
G01X1356360Y926360D01*
G02X1351870Y924500I-4490J4490D01*
G01X805630D01*
G02X801140Y926360I0J6350D01*
G01X788930Y938570D01*
G03X786680Y939500I-2247J-2250D01*
G01X760000D01*
G01X932500Y135000D02*
X914130D01*
G02X909640Y136860I0J6350D01*
G01X902430Y144070D01*
G03X900180Y145000I-2247J-2250D01*
G01X864500D01*
G01X880000Y322500D02*
Y275130D01*
G03X881860Y270640I6350J0D01*
G01X950000Y202500D01*
G01X916880Y400000D02*
Y382010D01*
G02X915020Y377520I-6350J0D01*
G01X899360Y361860D01*
G02X894870Y360000I-4490J4490D01*
G01X880000D01*
G01X830000Y400000D02*
X873120D01*
G01X1365000Y85000D02*
X932500D01*
G01Y135000D02*
X965640Y168140D01*
G02X970130Y170000I4490J-4490D01*
G01X982500D01*
G01D02*
X950000Y202500D01*
G01X960000Y400000D02*
Y365130D01*
G02X958140Y360640I-6350J0D01*
G01X950000Y352500D01*
G01X960000Y400000D02*
X916880D01*
G01X1169200Y270000D02*
X1035130D01*
G02X1030640Y271860I0J6350D01*
G01X950000Y352500D01*
G01X1277400Y747400D02*
X959900D01*
G01Y847400D02*
X1277400D01*
G01X1169200Y170000D02*
X982500D01*
G01X1455200Y124400D02*
Y141770D01*
G03X1453340Y146260I-6350J0D01*
G01X1413660Y185940D01*
G03X1409170Y187800I-4490J-4490D01*
G01X1317630D01*
G02X1313140Y189660I0J6350D01*
G01X1234660Y268140D01*
G03X1230170Y270000I-4490J-4490D01*
G01X1169200D01*
G01X1226600Y492600D02*
Y467200D01*
G01Y518000D02*
Y492600D01*
G01Y543400D02*
Y568800D01*
G01Y518000D02*
Y543400D01*
G01X1290100Y518000D02*
X1226600D01*
G01X1290100D02*
X1279260Y507160D01*
G03X1277400Y502670I4490J-4490D01*
G01Y468350D01*
G01Y567650D02*
Y533330D01*
G03X1279260Y528840I6350J0D01*
G01X1290100Y518000D01*
G01X1467900Y568800D02*
X1394330D01*
G03X1389840Y566940I0J-6350D01*
G01X1342760Y519860D01*
G02X1338270Y518000I-4490J4490D01*
G01X1320000D01*
G01D02*
X1290100D01*
G01X1349050Y592280D02*
X1361810Y605040D01*
G02X1366300Y606900I4490J-4490D01*
G01X1490670D01*
G03X1495160Y608760I0J6350D01*
G01X1554940Y668540D01*
G02X1559430Y670400I4490J-4490D01*
G01X1620300D01*
G01X1277400Y747400D02*
X1313670D01*
G03X1318160Y749260I0J6350D01*
G01X1415240Y846340D01*
G02X1419730Y848200I4490J-4490D01*
G01X1439870D01*
G03X1444360Y850060I0J6350D01*
G01X1467900Y873600D01*
G01X1404400Y73500D02*
X1385030D01*
G02X1380540Y75360I0J6350D01*
G01X1371830Y84070D01*
G03X1369580Y85000I-2247J-2250D01*
G01X1365000D01*
G01D02*
X1404400Y124400D01*
G01X1349820Y445580D02*
X1402540Y392860D01*
G02X1404400Y388370I-4490J-4490D01*
G01Y327400D01*
G01Y530700D02*
Y502790D01*
G02X1402540Y498300I-6350J0D01*
G01X1349820Y445580D01*
G01X1607600Y73500D02*
X1508630D01*
G02X1504140Y75360I0J6350D01*
G01X1469350Y110150D01*
Y110250D01*
X1455200Y124400D01*
G01X1506000Y327400D02*
Y530700D01*
G01D02*
X1467900Y568800D01*
G01X1620300Y721200D02*
X1645700D01*
X1657990Y708910D01*
G02X1659850Y704420I-4490J-4490D01*
G01Y598280D01*
G02X1657990Y593790I-6350J0D01*
G01X1634860Y570660D01*
G02X1630370Y568800I-4490J4490D01*
G01X1467900D01*
G01Y873600D02*
Y899000D01*
G01X1620300Y873600D02*
Y899000D01*
G54D27*
X882500Y441380D03*
Y503620D03*
X907500Y441380D03*
Y503620D03*
G54D18*
X242350Y32000D03*
X1404400Y73500D03*
G54D37*
G01X760000Y822500D02*
X783570D01*
G03X788060Y824360I0J6350D01*
G01X811100Y847400D01*
G54D19*
X210600Y826400D03*
Y895400D03*
X760000Y870500D03*
Y939500D03*
G54D28*
X959900Y747400D03*
X1277400D03*
G54D38*
G01X882500Y441380D02*
X852010D01*
G03X847520Y439520I0J-6350D01*
G01X846430Y438430D01*
G02X844180Y437500I-2247J2250D01*
G01X830000D01*
G01X907500Y441380D02*
X937990D01*
G02X942480Y439520I0J-6350D01*
G01X943570Y438430D01*
G03X945820Y437500I2247J2250D01*
G01X960000D01*
G54D29*
X959900Y847400D03*
X1277400D03*
M02*
